HIERARCHY
ROOT Hips
{
  OFFSET -80.2698 97.9671 -184.842
  CHANNELS 6 Xposition Yposition Zposition Zrotation Xrotation Yrotation
  JOINT ToSpine
  {
    OFFSET -2.69724 7.43032 -0.144315
    CHANNELS 3 Zrotation Xrotation Yrotation
    JOINT Spine
    {
      OFFSET -0.0310711 10.7595 1.96963
      CHANNELS 3 Zrotation Xrotation Yrotation
      JOINT Spine1
      {
        OFFSET 13.1342 3.43533 0.764692
        CHANNELS 3 Zrotation Xrotation Yrotation
        JOINT Neck
        {
          OFFSET 29.8703 7.82586 -0.130764
          CHANNELS 3 Zrotation Xrotation Yrotation
          JOINT Head
          {
            OFFSET 9.52751 0.295786 -0.907742
            CHANNELS 3 Zrotation Xrotation Yrotation
            End Site
            {
              OFFSET 16.4037 0.713936 2.7358
            }
          }
        }
        JOINT LeftShoulder
        {
          OFFSET 27.5574 4.95586 2.47156
          CHANNELS 3 Zrotation Xrotation Yrotation
          JOINT LeftArm
          {
            OFFSET 1.20734 -0.998971 20.1238
            CHANNELS 3 Zrotation Xrotation Yrotation
            JOINT LeftForeArm
            {
              OFFSET 26.8049 -0.0536703 -0.155908
              CHANNELS 3 Zrotation Xrotation Yrotation
              JOINT LeftHand
              {
                OFFSET 26.6817 0 0.320147
                CHANNELS 3 Zrotation Xrotation Yrotation
                End Site
                {
                  OFFSET 18.6119 0 0.382219
                }
              }
            }
          }
        }
        JOINT RightShoulder
        {
          OFFSET 27.5927 4.71444 -2.65209
          CHANNELS 3 Zrotation Xrotation Yrotation
          JOINT RightArm
          {
            OFFSET 2.83739 -1.17114 -18.7564
            CHANNELS 3 Zrotation Xrotation Yrotation
            JOINT RightForeArm
            {
              OFFSET 28.839 -0.0548439 1.22491
              CHANNELS 3 Zrotation Xrotation Yrotation
              JOINT RightHand
              {
                OFFSET 26.5114 0 -0.101894
                CHANNELS 3 Zrotation Xrotation Yrotation
                End Site
                {
                  OFFSET 18.2168 0 0
                }
              }
            }
          }
        }
      }
    }
  }
  JOINT LeftUpLeg
  {
    OFFSET -4.76168 -1.9167 -10.2353
    CHANNELS 3 Zrotation Xrotation Yrotation
    JOINT LeftLeg
    {
      OFFSET 2.55951 -42.0585 -8.02213
      CHANNELS 3 Zrotation Xrotation Yrotation
      JOINT LeftFoot
      {
        OFFSET 3.16357 -42.5282 -3.95426
        CHANNELS 3 Zrotation Xrotation Yrotation
        JOINT LeftToeBase
        {
          OFFSET 0.346054 -6.02161 12.8035
          CHANNELS 3 Zrotation Xrotation Yrotation
          End Site
          {
            OFFSET 0.134235 -1.35082 5.13018
          }
        }
      }
    }
  }
  JOINT RightUpLeg
  {
    OFFSET -4.94151 -1.41743 10.6446
    CHANNELS 3 Zrotation Xrotation Yrotation
    JOINT RightLeg
    {
      OFFSET -2.56294 -42.0364 -7.94377
      CHANNELS 3 Zrotation Xrotation Yrotation
      JOINT RightFoot
      {
        OFFSET -3.0952 -42.555 -4.02241
        CHANNELS 3 Zrotation Xrotation Yrotation
        JOINT RightToeBase
        {
          OFFSET -0.0828122 -6.13587 12.8035
          CHANNELS 3 Zrotation Xrotation Yrotation
          End Site
          {
            OFFSET -0.131328 -1.35082 5.13018
          }
        }
      }
    }
  }
}
MOTION
Frames:	6
Frame Time:	0.0333333
-15.035 98.2959 -183.445 1.84103 -70.1279 -89.4187 -70.1915 0 88.8779 69.4585 70.5703 18.7236 1.30479 21.5134 0.677329 -157.113 20.3763 175.938 -158.593 59.7241 -173.776 -0.547292 -16.4701 -36.0788 -66.9612 44.2551 -90.9721 8.1524 19.9588 -26.8869 0.420957 0.000575443 0.35866 -1.90065 5.67688 47.8902 -68.097 -34.5627 93.0768 2.48305 -16.3465 23.2264 0.58676 0.000331116 0.0646653 -55.1953 1.42166 99.0021 -0.701311 19.2381 -11.2493 2.5755 -5.96498 -0.756912 -0.0508545 -1.81706 4.84507 -55.7789 -3.502 80.0151 2.01869 16.5644 2.36372 -7.77507 -5.27406 1.20823 0.95581 -4.33422 -3.53032 
-15.0349 98.275 -183.431 1.81639 -70.1828 -89.3906 -70.1915 0 88.8779 69.2466 70.58 18.9802 1.4593 21.5219 0.733809 -157.319 20.4577 176.133 -159.031 59.8378 -173.553 -0.57814 -16.5621 -36.2 -66.9037 44.2325 -90.9818 7.84161 19.6773 -26.7124 0.420957 0.000575443 0.35866 -1.89503 5.6668 47.8543 -68.0537 -34.4762 93.0577 2.39028 -16.1429 23.2038 0.58676 0.000331116 0.0646653 -55.1886 1.48792 98.9938 -0.648872 19.3806 -10.9688 2.53395 -6.40433 -0.778631 -0.278408 -1.07244 4.05732 -55.8654 -3.39246 80.0744 1.97575 16.5044 2.26682 -7.97623 -5.13801 1.22375 0.975416 -4.75292 -3.3747 
-15.0504 98.28 -183.52 1.12102 -69.7274 -89.8095 -70.1915 0 88.8779 67.5298 70.404 21.1182 1.84183 21.5526 0.757852 -157.503 20.4984 176.292 -159.097 59.8715 -173.769 -0.600274 -16.5875 -36.4543 -66.5544 44.0674 -91.3024 7.45975 19.3439 -26.507 0.420957 0.000575443 0.35866 -1.90322 5.74333 47.5587 -65.6458 -34.7973 93.6579 3.60523 -14.6867 24.318 0.58676 0.000331116 0.0646653 -54.4254 1.92544 99.0296 -0.755264 19.8688 -11.1577 2.88755 -6.35039 -0.801493 -0.237554 -1.3166 4.48983 -55.4785 -2.89546 80.4669 1.83408 16.064 1.25409 -7.55395 -5.07936 1.1872 0.719124 -4.21582 -1.75311 
-15.025 98.286 -183.584 1.72173 -69.8077 -89.2876 -70.1915 0 88.8779 68.2741 70.4533 20.0972 1.50392 21.4344 1.0104 -157.573 20.4503 176.203 -159.129 59.8025 -174.178 -0.576875 -16.5155 -36.3769 -66.6497 44.1985 -91.2957 7.44898 19.6028 -26.4222 0.420957 0.000575443 0.35866 -1.90104 5.7376 47.5545 -65.3669 -34.7772 93.9046 3.45964 -14.131 24.3477 0.58676 0.000331116 0.0646653 -54.4344 1.77549 99.0081 -0.731574 19.9308 -11.3376 2.50996 -6.60527 -0.788402 -0.434721 -1.02393 4.74343 -55.5387 -3.08832 80.3538 1.88368 16.1087 1.23212 -7.51361 -5.34386 1.18703 0.68321 -3.69992 -1.89329 
-14.996 98.2738 -183.603 1.80853 -69.9157 -89.236 -70.1915 0 88.8779 67.9912 70.4829 20.3065 1.66827 21.4599 1.10134 -157.486 20.5122 176.306 -159.238 59.8771 -174.012 -0.613346 -16.6208 -36.526 -65.949 44.0864 -91.6692 7.3 18.989 -26.4972 0.420957 0.000575443 0.35866 -1.90779 5.77627 47.4496 -65.9765 -34.9519 93.5853 3.63736 -14.7038 24.3331 0.58676 0.000331116 0.0646653 -54.5751 1.7002 98.9999 -0.717493 19.8856 -11.329 2.39037 -6.67036 -0.783912 -0.377809 -1.13072 4.73104 -55.5143 -3.15295 80.3407 1.84317 16.3962 1.33594 -7.55399 -5.41064 1.19166 0.71998 -3.76185 -2.11844 
-14.9753 98.2496 -183.628 1.76466 -69.8058 -89.2768 -70.1915 0 88.8779 67.4152 70.4808 20.9734 1.70669 21.5528 1.0557 -157.263 20.5724 176.239 -159.21 59.9409 -173.878 -0.636405 -16.7051 -36.5437 -66.154 44.1095 -91.5224 7.27713 19.1239 -26.4338 0.420957 0.000575443 0.35866 -1.89597 5.74729 47.4181 -65.712 -35.1209 93.6457 3.50426 -13.8105 24.4429 0.58676 0.000331116 0.0646653 -54.4373 1.75095 99.0217 -0.817642 19.856 -11.2736 2.77209 -6.44579 -0.798205 -0.21627 -1.4081 4.62283 -55.3891 -3.10819 80.4148 1.82163 16.3512 1.4142 -8.16567 -5.09035 1.23949 0.840191 -4.57476 -2.4219 
